<?xml version="1.0" encoding="UTF-8" standalone="no"?>
<svg
   xmlns:osb="http://www.openswatchbook.org/uri/2009/osb"
   xmlns:dc="http://purl.org/dc/elements/1.1/"
   xmlns:cc="http://creativecommons.org/ns#"
   xmlns:rdf="http://www.w3.org/1999/02/22-rdf-syntax-ns#"
   xmlns:svg="http://www.w3.org/2000/svg"
   xmlns="http://www.w3.org/2000/svg"
   xmlns:sodipodi="http://sodipodi.sourceforge.net/DTD/sodipodi-0.dtd"
   xmlns:inkscape="http://www.inkscape.org/namespaces/inkscape"
   version="1.1"
   id="svg2"
   viewBox="0 0 320 240"
   height="240"
   width="320"
   inkscape:version="0.91 r13725"
   sodipodi:docname="DrumBox.svg">
  <metadata
     id="metadata55">
    <rdf:RDF>
      <cc:Work
         rdf:about="">
        <dc:format>image/svg+xml</dc:format>
        <dc:type
           rdf:resource="http://purl.org/dc/dcmitype/StillImage" />
        <dc:title></dc:title>
      </cc:Work>
    </rdf:RDF>
  </metadata>
  <sodipodi:namedview
     pagecolor="#000000"
     bordercolor="#666666"
     borderopacity="1"
     objecttolerance="10"
     gridtolerance="10"
     guidetolerance="10"
     inkscape:pageopacity="0"
     inkscape:pageshadow="2"
     inkscape:window-width="1600"
     inkscape:window-height="879"
     id="namedview53"
     showgrid="false"
     borderlayer="true"
     inkscape:showpageshadow="false"
     inkscape:zoom="2"
     inkscape:cx="173.18947"
     inkscape:cy="108.0497"
     inkscape:window-x="0"
     inkscape:window-y="21"
     inkscape:window-maximized="1"
     inkscape:current-layer="svg2"
     showguides="false"
     fit-margin-top="10"
     fit-margin-left="0"
     fit-margin-right="0"
     fit-margin-bottom="0">
    <inkscape:grid
       type="xygrid"
       id="grid4339"
       originx="-15"
       originy="-160" />
  </sodipodi:namedview>
  <defs
     id="defs4">
    <linearGradient
       id="Black-2"
       osb:paint="solid"
       gradientTransform="matrix(0.96687752,0,0,0.96440483,136.08801,-5.474216)">
      <stop
         style="stop-color:#000000;stop-opacity:1;"
         offset="0"
         id="stop4499" />
    </linearGradient>
    <linearGradient
       id="linearGradient4457">
      <stop
         style="stop-color:#666666;stop-opacity:1;"
         offset="0"
         id="stop4459" />
    </linearGradient>
    <linearGradient
       id="linearGradient4451">
      <stop
         style="stop-color:#ffffff;stop-opacity:1;"
         offset="0"
         id="stop4453" />
    </linearGradient>
    <linearGradient
       id="linearGradient4445">
      <stop
         style="stop-color:#b3b3b3;stop-opacity:1;"
         offset="0"
         id="stop4447" />
    </linearGradient>
    <linearGradient
       id="70Gray-6"
       osb:paint="solid"
       gradientTransform="matrix(0.88182911,0,0,0.88182911,-312.17146,-224.80358)">
      <stop
         style="stop-color:#b3b3b3;stop-opacity:1;"
         offset="0"
         id="stop4441" />
    </linearGradient>
    <linearGradient
       id="linearGradient4433">
      <stop
         style="stop-color:#000000;stop-opacity:1;"
         offset="0"
         id="stop4435" />
    </linearGradient>
    <linearGradient
       id="linearGradient4427">
      <stop
         style="stop-color:#000000;stop-opacity:1;"
         offset="0"
         id="stop4429" />
    </linearGradient>
    <linearGradient
       id="linearGradient4421">
      <stop
         style="stop-color:#666666;stop-opacity:1;"
         offset="0"
         id="stop4423" />
    </linearGradient>
    <linearGradient
       id="60Gray-5"
       osb:paint="solid"
       gradientTransform="matrix(0.34918339,-0.0935634,0.08674722,0.32374503,680.53768,-1109.6276)">
      <stop
         style="stop-color:#3c3c47;stop-opacity:1;"
         offset="0"
         id="stop4417" />
    </linearGradient>
    <linearGradient
       id="White-6"
       osb:paint="solid"
       gradientTransform="matrix(1.2500001,0,0,1.2500001,-33.750006,102.49961)">
      <stop
         style="stop-color:#ffffff;stop-opacity:1;"
         offset="0"
         id="stop4411" />
    </linearGradient>
    <linearGradient
       id="Green-7"
       osb:paint="solid"
       gradientTransform="matrix(0.76818427,0,0,0.37792204,265.6762,271.78818)">
      <stop
         style="stop-color:#5ecf3e;stop-opacity:1;"
         offset="0"
         id="stop4405" />
    </linearGradient>
    <linearGradient
       id="Blue-5"
       osb:paint="solid"
       gradientTransform="matrix(1.000828,0,0,0.99826845,304.98462,109.49451)">
      <stop
         style="stop-color:#0a7cff;stop-opacity:1;"
         offset="0"
         id="stop4399" />
    </linearGradient>
    <linearGradient
       id="Red-3"
       osb:paint="solid"
       gradientTransform="matrix(0.96607759,0,0,0.9660776,73.558297,-9.9864115)">
      <stop
         style="stop-color:#ff2a2a;stop-opacity:1;"
         offset="0"
         id="stop4393" />
    </linearGradient>
    <inkscape:path-effect
       effect="powerstroke"
       id="path-effect4349"
       is_visible="true"
       offset_points="0,0.5"
       sort_points="true"
       interpolator_type="Linear"
       interpolator_beta="0.2"
       start_linecap_type="zerowidth"
       linejoin_type="round"
       miter_limit="4"
       end_linecap_type="zerowidth"
       cusp_linecap_type="round" />
    <marker
       style="overflow:visible"
       id="marker4507"
       refX="0"
       refY="0"
       orient="auto">
      <path
         transform="scale(0.4,0.4)"
         style="fill:#ffffff;fill-opacity:1;fill-rule:evenodd;stroke:#ffffff;stroke-width:1pt;stroke-opacity:1"
         d="m 5.77,0 -8.65,5 0,-10 8.65,5 z"
         id="path4509"
         inkscape:connector-curvature="0" />
    </marker>
    <marker
       style="overflow:visible"
       id="TriangleOutS"
       refX="0"
       refY="0"
       orient="auto">
      <path
         transform="scale(0.2,0.2)"
         style="fill:#ffffff;fill-opacity:1;fill-rule:evenodd;stroke:#ffffff;stroke-width:1pt;stroke-opacity:1"
         d="m 5.77,0 -8.65,5 0,-10 8.65,5 z"
         id="path4387"
         inkscape:connector-curvature="0" />
    </marker>
    <marker
       style="overflow:visible"
       id="TriangleOutM"
       refX="0"
       refY="0"
       orient="auto">
      <path
         transform="scale(0.4,0.4)"
         style="fill:#ffffff;fill-opacity:1;fill-rule:evenodd;stroke:#ffffff;stroke-width:1pt;stroke-opacity:1"
         d="m 5.77,0 -8.65,5 0,-10 8.65,5 z"
         id="path4384"
         inkscape:connector-curvature="0" />
    </marker>
    <marker
       style="overflow:visible"
       id="TriangleOutL"
       refX="0"
       refY="0"
       orient="auto">
      <path
         transform="scale(0.8,0.8)"
         style="fill:#ffffff;fill-opacity:1;fill-rule:evenodd;stroke:#ffffff;stroke-width:1pt;stroke-opacity:1"
         d="m 5.77,0 -8.65,5 0,-10 8.65,5 z"
         id="path4381"
         inkscape:connector-curvature="0" />
    </marker>
    <marker
       style="overflow:visible"
       id="TriangleInL"
       refX="0"
       refY="0"
       orient="auto">
      <path
         transform="scale(-0.8,-0.8)"
         style="fill:#ffffff;fill-opacity:1;fill-rule:evenodd;stroke:#ffffff;stroke-width:1pt;stroke-opacity:1"
         d="m 5.77,0 -8.65,5 0,-10 8.65,5 z"
         id="path4372"
         inkscape:connector-curvature="0" />
    </marker>
    <marker
       style="overflow:visible"
       id="Arrow2Lend"
       refX="0"
       refY="0"
       orient="auto">
      <path
         transform="matrix(-1.1,0,0,-1.1,-1.1,0)"
         d="M 8.7185878,4.0337352 -2.2072895,0.01601326 8.7185884,-4.0017078 c -1.7454984,2.3720609 -1.7354408,5.6174519 -6e-7,8.035443 z"
         style="fill:#ffffff;fill-opacity:1;fill-rule:evenodd;stroke:#ffffff;stroke-width:0.625;stroke-linejoin:round;stroke-opacity:1"
         id="path4260"
         inkscape:connector-curvature="0" />
    </marker>
    <marker
       style="overflow:visible"
       id="Arrow1Lend"
       refX="0"
       refY="0"
       orient="auto">
      <path
         transform="matrix(-0.8,0,0,-0.8,-10,0)"
         style="fill:#ffffff;fill-opacity:1;fill-rule:evenodd;stroke:#ffffff;stroke-width:1pt;stroke-opacity:1"
         d="M 0,0 5,-5 -12.5,0 5,5 0,0 Z"
         id="path4242"
         inkscape:connector-curvature="0" />
    </marker>
    <marker
       style="overflow:visible"
       id="marker4700"
       refX="0"
       refY="0"
       orient="auto">
      <path
         transform="matrix(0.2,0,0,0.2,1.48,0.2)"
         style="fill:#008000;fill-opacity:1;fill-rule:evenodd;stroke:#008000;stroke-width:1pt;stroke-opacity:1"
         d="m -2.5,-1 c 0,2.76 -2.24,5 -5,5 -2.76,0 -5,-2.24 -5,-5 0,-2.76 2.24,-5 5,-5 2.76,0 5,2.24 5,5 z"
         id="path4702"
         inkscape:connector-curvature="0" />
    </marker>
    <marker
       style="overflow:visible"
       id="DotS"
       refX="0"
       refY="0"
       orient="auto">
      <path
         transform="matrix(0.2,0,0,0.2,1.48,0.2)"
         style="fill:#008000;fill-opacity:1;fill-rule:evenodd;stroke:#008000;stroke-width:1pt;stroke-opacity:1"
         d="m -2.5,-1 c 0,2.76 -2.24,5 -5,5 -2.76,0 -5,-2.24 -5,-5 0,-2.76 2.24,-5 5,-5 2.76,0 5,2.24 5,5 z"
         id="path4419"
         inkscape:connector-curvature="0" />
    </marker>
    <marker
       style="overflow:visible"
       id="marker4628"
       refX="0"
       refY="0"
       orient="auto">
      <path
         transform="matrix(0.4,0,0,0.4,2.96,0.4)"
         style="fill:#008000;fill-opacity:1;fill-rule:evenodd;stroke:#008000;stroke-width:1pt;stroke-opacity:1"
         d="m -2.5,-1 c 0,2.76 -2.24,5 -5,5 -2.76,0 -5,-2.24 -5,-5 0,-2.76 2.24,-5 5,-5 2.76,0 5,2.24 5,5 z"
         id="path4630"
         inkscape:connector-curvature="0" />
    </marker>
    <marker
       style="overflow:visible"
       id="DotM"
       refX="0"
       refY="0"
       orient="auto">
      <path
         transform="matrix(0.4,0,0,0.4,2.96,0.4)"
         style="fill:#008000;fill-opacity:1;fill-rule:evenodd;stroke:#008000;stroke-width:1pt;stroke-opacity:1"
         d="m -2.5,-1 c 0,2.76 -2.24,5 -5,5 -2.76,0 -5,-2.24 -5,-5 0,-2.76 2.24,-5 5,-5 2.76,0 5,2.24 5,5 z"
         id="path4416"
         inkscape:connector-curvature="0" />
    </marker>
  </defs>
  <path
     cx="59.991138"
     cy="180.00887"
     r="3.9073391"
     style="opacity:1;fill:none;stroke:#ffffff;stroke-width:1.99999988;stroke-linecap:round;stroke-linejoin:round;stroke-miterlimit:2;stroke-dasharray:none;stroke-opacity:1"
     id="path4394"
     d=""
     inkscape:connector-curvature="0" />
  <rect
     style="opacity:1;fill:none;stroke:url(#60Gray-5);stroke-width:1.99999988;stroke-linecap:round;stroke-linejoin:round;stroke-miterlimit:4;stroke-dasharray:none;stroke-opacity:1"
     id="rect4297"
     width="63"
     height="63"
     x="16"
     y="91" />
  <rect
     y="91"
     x="91"
     height="63"
     width="63"
     id="rect4299"
     style="opacity:1;fill:none;stroke:url(#60Gray-5);stroke-width:1.99999988;stroke-linecap:round;stroke-linejoin:round;stroke-miterlimit:4;stroke-dasharray:none;stroke-opacity:1" />
  <rect
     style="opacity:1;fill:none;stroke:url(#60Gray-5);stroke-width:1.99999988;stroke-linecap:round;stroke-linejoin:round;stroke-miterlimit:4;stroke-dasharray:none;stroke-opacity:1"
     id="rect4301"
     width="63"
     height="63"
     x="166"
     y="91" />
  <rect
     y="91"
     x="241"
     height="63"
     width="63"
     id="rect4303"
     style="opacity:1;fill:none;stroke:url(#60Gray-5);stroke-width:1.99999988;stroke-linecap:round;stroke-linejoin:round;stroke-miterlimit:4;stroke-dasharray:none;stroke-opacity:1" />
  <rect
     y="16"
     x="16"
     height="63"
     width="63"
     id="rect4309"
     style="opacity:1;fill:none;stroke:url(#60Gray-5);stroke-width:1.99999988;stroke-linecap:round;stroke-linejoin:round;stroke-miterlimit:4;stroke-dasharray:none;stroke-opacity:1" />
  <text
     xml:space="preserve"
     style="font-style:normal;font-weight:normal;font-size:40px;line-height:125%;font-family:sans-serif;letter-spacing:0px;word-spacing:0px;fill:#000000;fill-opacity:1;stroke:none;stroke-width:1px;stroke-linecap:butt;stroke-linejoin:miter;stroke-opacity:1"
     x="96.096588"
     y="29.988632"
     id="text5654"
     sodipodi:linespacing="125%"><tspan
       sodipodi:role="line"
       id="tspan5656"
       x="96.096588"
       y="29.988632"
       style="font-style:normal;font-variant:normal;font-weight:normal;font-stretch:normal;font-size:12.5px;font-family:Lato;-inkscape-font-specification:Lato;fill:url(#60Gray-5)">TONE</tspan></text>
  <text
     sodipodi:linespacing="125%"
     id="text5658"
     y="73.988632"
     x="108.09659"
     style="font-style:normal;font-weight:normal;font-size:40px;line-height:125%;font-family:sans-serif;letter-spacing:0px;word-spacing:0px;fill:#000000;fill-opacity:1;stroke:none;stroke-width:1px;stroke-linecap:butt;stroke-linejoin:miter;stroke-opacity:1"
     xml:space="preserve"><tspan
       style="font-style:normal;font-variant:normal;font-weight:normal;font-stretch:normal;font-size:12.5px;font-family:Lato;-inkscape-font-specification:Lato;fill:url(#60Gray-5)"
       y="73.988632"
       x="108.09659"
       id="tspan5660"
       sodipodi:role="line">DECAY</tspan></text>
  <path
     style="fill:none;fill-rule:evenodd;stroke:url(#70Gray-6);stroke-width:2;stroke-linecap:round;stroke-linejoin:miter;stroke-miterlimit:4;stroke-dasharray:none;stroke-opacity:1"
     d="M 95,75 150,20"
     id="path5644"
     inkscape:connector-curvature="0" />
  <rect
     style="opacity:1;fill:none;stroke:url(#60Gray-5);stroke-width:1.99999988;stroke-linecap:round;stroke-linejoin:round;stroke-miterlimit:4;stroke-dasharray:none;stroke-opacity:1"
     id="rect4311"
     width="63"
     height="63"
     x="91"
     y="16" />
  <rect
     y="16"
     x="166"
     height="63"
     width="63"
     id="rect4313"
     style="opacity:1;fill:none;stroke:url(#60Gray-5);stroke-width:1.99999988;stroke-linecap:round;stroke-linejoin:round;stroke-miterlimit:4;stroke-dasharray:none;stroke-opacity:1" />
  <rect
     style="opacity:1;fill:none;stroke:url(#60Gray-5);stroke-width:1.99999988;stroke-linecap:round;stroke-linejoin:round;stroke-miterlimit:4;stroke-dasharray:none;stroke-opacity:1"
     id="rect4315"
     width="63"
     height="63"
     x="241"
     y="16" />
  <g
     id="g5502"
     style="fill:none;stroke:url(#Red-3);stroke-width:1.38611126"
     transform="matrix(0.72144278,0,0,0.72144278,24.05311,24.05311)">
    <circle
       cy="32.5"
       cx="32.5"
       id="path4325"
       style="opacity:1;fill:none;stroke:url(#Red-3);stroke-width:2.77222252;stroke-linecap:round;stroke-linejoin:round;stroke-miterlimit:4;stroke-dasharray:none;stroke-opacity:1"
       r="15.94028" />
    <path
       sodipodi:nodetypes="cc"
       inkscape:connector-curvature="0"
       id="path4327"
       d="m 32.5,17 0,15.5"
       style="fill:none;fill-rule:evenodd;stroke:url(#Red-3);stroke-width:2.77222252;stroke-linecap:round;stroke-linejoin:miter;stroke-miterlimit:4;stroke-dasharray:none;stroke-opacity:1" />
    <path
       id="path5704"
       style="fill:none;fill-rule:evenodd;stroke:url(#70Gray-6);stroke-width:1.38611126;stroke-linecap:round;stroke-linejoin:miter;stroke-miterlimit:4;stroke-dasharray:none;stroke-opacity:1"
       d="M 9.4578438,55.528927 18.279002,46.707769 M 32.5,-0.07361522 32.5,12.401387 m 23.02367,43.135197 -8.821159,-8.821159 m 9.192863,-0.703867 -6.002037,-3.465277 m 8.703054,-3.051863 -6.694402,-1.793759 m 7.616624,-5.200389 -6.930554,0 m 6.011134,-6.994517 -6.694402,1.793759 m 3.995996,-8.31198 -6.002037,3.465277 m 1.708537,-9.062997 -4.900643,4.900643 M 46.011288,9.0940694 42.54601,15.096107 m -3.051862,-8.703055 -1.79376,6.694403 m -12.194906,-6.6972052 1.79376,6.6944032 m -13.909701,0.297503 4.900643,4.900643 m -11.8974027,7.212496 6.6944027,1.79376 m -6.6972048,12.194906 6.6944028,-1.79376 m -3.9959968,8.311981 6.0020378,-3.465278 m -9.6198639,-10.047461 6.9305559,0 M 9.0937991,18.978155 15.095837,22.443433 m 3.891424,-13.3547767 3.465278,6.0020377"
       inkscape:connector-curvature="0" />
  </g>
  <path
     style="fill:none;fill-rule:evenodd;stroke:url(#Green-7);stroke-width:1px;stroke-linecap:round;stroke-linejoin:round;stroke-opacity:1"
     d="m 204.8977,71.86881 3.84092,0 0.57004,-2.20804 0.61108,4.78197 1.42587,-6.53147 c 0,0 0.2037,7.87276 0.61109,7.81444 0.40739,-0.0583 1.35797,-7.40622 1.35797,-7.40622 l 0.95058,5.65672 1.08638,-6.47315 c 0,0 1.01848,7.52285 1.15427,7.75612 0.1358,0.23327 0.95058,-6.06494 0.95058,-6.06494 l 1.35797,5.36514 0.81478,-6.35652 0.63215,3.66595 3.84092,0"
     id="path5621"
     inkscape:connector-curvature="0"
     sodipodi:nodetypes="cccccsccccccccc" />
  <path
     style="fill:none;fill-rule:evenodd;stroke:url(#Green-7);stroke-width:0.99999988px;stroke-linecap:round;stroke-linejoin:round;stroke-opacity:1"
     d="m 172,72.00001 5,0 0,3.11793 5,1.3e-4 0,-6.23605 5,0 0,3.11799 5,0"
     id="path5621-6"
     inkscape:connector-curvature="0"
     sodipodi:nodetypes="cccccccc" />
  <path
     style="fill:none;fill-rule:evenodd;stroke:url(#Blue-5);stroke-width:2;stroke-linecap:round;stroke-linejoin:miter;stroke-miterlimit:4;stroke-dasharray:none;stroke-opacity:1"
     d="m 95,75 c 35,-5 50,-20 55,-55"
     id="path5642"
     inkscape:connector-curvature="0"
     sodipodi:nodetypes="cc" />
  <path
     style="opacity:1;fill:none;stroke:url(#70Gray-6);stroke-width:1;stroke-linecap:round;stroke-linejoin:round;stroke-miterlimit:4;stroke-dasharray:none;stroke-opacity:1"
     id="path5646"
     sodipodi:type="arc"
     sodipodi:cx="-158.88179"
     sodipodi:cy="-226.45065"
     sodipodi:rx="22.927557"
     sodipodi:ry="22.927557"
     sodipodi:start="6.0213859"
     sodipodi:end="4.9741884"
     sodipodi:open="true"
     d="m -136.73547,-232.38474 a 22.927557,22.927557 0 0 1 -10.68254,25.78993 22.927557,22.927557 0 0 1 -27.67601,-3.64361 22.927557,22.927557 0 0 1 -3.64362,-27.67601 22.927557,22.927557 0 0 1 25.78994,-10.68254"
     transform="matrix(-0.70718025,0.7070333,-0.70718025,-0.7070333,0,0)"
     inkscape:transform-center-y="-3.3569041" />
  <circle
     style="opacity:1;fill:url(#White-6);stroke:none;stroke-width:1;stroke-linecap:round;stroke-linejoin:round;stroke-miterlimit:4;stroke-dasharray:none;stroke-opacity:1"
     id="path5648"
     cx="272.5"
     cy="25"
     r="2.5" />
  <text
     xml:space="preserve"
     style="font-style:normal;font-weight:normal;font-size:40px;line-height:125%;font-family:sans-serif;letter-spacing:0px;word-spacing:0px;fill:url(#60Gray-5);fill-opacity:1;stroke:none;stroke-width:1px;stroke-linecap:butt;stroke-linejoin:miter;stroke-opacity:1"
     x="253.24622"
     y="51.246223"
     id="text5650"
     sodipodi:linespacing="125%"><tspan
       sodipodi:role="line"
       id="tspan5652"
       x="253.24622"
       y="51.246223"
       style="font-style:normal;font-variant:normal;font-weight:normal;font-stretch:normal;font-size:12.5px;font-family:Lato;-inkscape-font-specification:Lato;fill:url(#60Gray-5)">FILTER</tspan></text>
  <g
     transform="matrix(0.72144278,0,0,0.72144278,174.05311,24.05311)"
     style="fill:none;stroke:url(#Red-3);stroke-width:1.38611126"
     id="g5707">
    <circle
       r="15.94028"
       style="opacity:1;fill:none;stroke:url(#Green-7);stroke-width:2.77222252;stroke-linecap:round;stroke-linejoin:round;stroke-miterlimit:4;stroke-dasharray:none;stroke-opacity:1"
       id="circle5709"
       cx="32.5"
       cy="32.5" />
    <path
       style="fill:none;fill-rule:evenodd;stroke:url(#Green-7);stroke-width:2.77222252;stroke-linecap:round;stroke-linejoin:miter;stroke-miterlimit:4;stroke-dasharray:none;stroke-opacity:1"
       d="m 32.5,17 0,15.5"
       id="path5711"
       inkscape:connector-curvature="0"
       sodipodi:nodetypes="cc" />
    <path
       d="M 9.4578438,55.528927 18.279002,46.707769 M 32.5,-0.07361522 32.5,12.401387 m 23.02367,43.135197 -8.821159,-8.821159 m 9.192863,-0.703867 -6.002037,-3.465277 m 8.703054,-3.051863 -6.694402,-1.793759 m 7.616624,-5.200389 -6.930554,0 m 6.011134,-6.994517 -6.694402,1.793759 m 3.995996,-8.31198 -6.002037,3.465277 m 1.708537,-9.062997 -4.900643,4.900643 M 46.011288,9.0940694 42.54601,15.096107 m -3.051862,-8.703055 -1.79376,6.694403 m -12.194906,-6.6972052 1.79376,6.6944032 m -13.909701,0.297503 4.900643,4.900643 m -11.8974027,7.212496 6.6944027,1.79376 m -6.6972048,12.194906 6.6944028,-1.79376 m -3.9959968,8.311981 6.0020378,-3.465278 m -9.6198639,-10.047461 6.9305559,0 M 9.0937991,18.978155 15.095837,22.443433 m 3.891424,-13.3547767 3.465278,6.0020377"
       style="fill:none;fill-rule:evenodd;stroke:url(#70Gray-6);stroke-width:1.38611126;stroke-linecap:round;stroke-linejoin:miter;stroke-miterlimit:4;stroke-dasharray:none;stroke-opacity:1"
       id="path5713"
       inkscape:connector-curvature="0" />
  </g>
  <text
     sodipodi:linespacing="125%"
     id="text4488"
     y="104.98825"
     x="96.096588"
     style="font-style:normal;font-weight:normal;font-size:40px;line-height:125%;font-family:sans-serif;letter-spacing:0px;word-spacing:0px;fill:#000000;fill-opacity:1;stroke:none;stroke-width:1px;stroke-linecap:butt;stroke-linejoin:miter;stroke-opacity:1"
     xml:space="preserve"><tspan
       style="font-style:normal;font-variant:normal;font-weight:normal;font-stretch:normal;font-size:12.5px;font-family:Lato;-inkscape-font-specification:Lato;fill:url(#60Gray-5)"
       y="104.98825"
       x="96.096588"
       id="tspan4490"
       sodipodi:role="line">TONE</tspan></text>
  <text
     xml:space="preserve"
     style="font-style:normal;font-weight:normal;font-size:40px;line-height:125%;font-family:sans-serif;letter-spacing:0px;word-spacing:0px;fill:#000000;fill-opacity:1;stroke:none;stroke-width:1px;stroke-linecap:butt;stroke-linejoin:miter;stroke-opacity:1"
     x="108.09659"
     y="148.98825"
     id="text4492"
     sodipodi:linespacing="125%"><tspan
       sodipodi:role="line"
       id="tspan4494"
       x="108.09659"
       y="148.98825"
       style="font-style:normal;font-variant:normal;font-weight:normal;font-stretch:normal;font-size:12.5px;font-family:Lato;-inkscape-font-specification:Lato;fill:url(#60Gray-5)">DECAY</tspan></text>
  <path
     inkscape:connector-curvature="0"
     id="path4496"
     d="M 95,149.99962 150,94.99961"
     style="fill:none;fill-rule:evenodd;stroke:url(#70Gray-6);stroke-width:2;stroke-linecap:round;stroke-linejoin:miter;stroke-miterlimit:4;stroke-dasharray:none;stroke-opacity:1" />
  <g
     transform="matrix(0.72144278,0,0,0.72144278,24.05311,99.05272)"
     style="fill:none;stroke:url(#Red-3);stroke-width:1.38611126"
     id="g4498">
    <circle
       r="15.94028"
       style="opacity:1;fill:none;stroke:url(#Red-3);stroke-width:2.77222252;stroke-linecap:round;stroke-linejoin:round;stroke-miterlimit:4;stroke-dasharray:none;stroke-opacity:1"
       id="circle4500"
       cx="32.5"
       cy="32.5" />
    <path
       style="fill:none;fill-rule:evenodd;stroke:url(#Red-3);stroke-width:2.77222252;stroke-linecap:round;stroke-linejoin:miter;stroke-miterlimit:4;stroke-dasharray:none;stroke-opacity:1"
       d="m 32.5,17 0,15.5"
       id="path4502"
       inkscape:connector-curvature="0"
       sodipodi:nodetypes="cc" />
    <path
       d="M 9.4578438,55.528927 18.279002,46.707769 M 32.5,-0.07361522 32.5,12.401387 m 23.02367,43.135197 -8.821159,-8.821159 m 9.192863,-0.703867 -6.002037,-3.465277 m 8.703054,-3.051863 -6.694402,-1.793759 m 7.616624,-5.200389 -6.930554,0 m 6.011134,-6.994517 -6.694402,1.793759 m 3.995996,-8.31198 -6.002037,3.465277 m 1.708537,-9.062997 -4.900643,4.900643 M 46.011288,9.0940694 42.54601,15.096107 m -3.051862,-8.703055 -1.79376,6.694403 m -12.194906,-6.6972052 1.79376,6.6944032 m -13.909701,0.297503 4.900643,4.900643 m -11.8974027,7.212496 6.6944027,1.79376 m -6.6972048,12.194906 6.6944028,-1.79376 m -3.9959968,8.311981 6.0020378,-3.465278 m -9.6198639,-10.047461 6.9305559,0 M 9.0937991,18.978155 15.095837,22.443433 m 3.891424,-13.3547767 3.465278,6.0020377"
       style="fill:none;fill-rule:evenodd;stroke:url(#70Gray-6);stroke-width:1.38611126;stroke-linecap:round;stroke-linejoin:miter;stroke-miterlimit:4;stroke-dasharray:none;stroke-opacity:1"
       id="path4504"
       inkscape:connector-curvature="0" />
  </g>
  <path
     sodipodi:nodetypes="cccccsccccccccc"
     inkscape:connector-curvature="0"
     id="path4506"
     d="m 204.8977,146.86843 3.84092,0 0.57004,-2.20804 0.61108,4.78197 1.42587,-6.53147 c 0,0 0.2037,7.87276 0.61109,7.81444 0.40739,-0.0583 1.35797,-7.40622 1.35797,-7.40622 l 0.95058,5.65672 1.08638,-6.47316 c 0,0 1.01848,7.52286 1.15427,7.75613 0.1358,0.23327 0.95058,-6.06494 0.95058,-6.06494 l 1.35797,5.36514 0.81478,-6.35652 0.63215,3.66595 3.84092,0"
     style="fill:none;fill-rule:evenodd;stroke:url(#Green-7);stroke-width:1px;stroke-linecap:round;stroke-linejoin:round;stroke-opacity:1" />
  <path
     sodipodi:nodetypes="cccccccc"
     inkscape:connector-curvature="0"
     id="path4508"
     d="m 172,146.99963 5,0 0,3.11793 5,1.3e-4 0,-6.23605 5,0 0,3.11799 5,0"
     style="fill:none;fill-rule:evenodd;stroke:url(#Green-7);stroke-width:0.99999988px;stroke-linecap:round;stroke-linejoin:round;stroke-opacity:1" />
  <path
     sodipodi:nodetypes="cc"
     inkscape:connector-curvature="0"
     id="path4510"
     d="m 95,149.99962 c 35,-5 50,-20 55,-55.00001"
     style="fill:none;fill-rule:evenodd;stroke:url(#Blue-5);stroke-width:2;stroke-linecap:round;stroke-linejoin:miter;stroke-miterlimit:4;stroke-dasharray:none;stroke-opacity:1" />
  <path
     inkscape:transform-center-y="-3.3569041"
     transform="matrix(-0.70718025,0.7070333,-0.70718025,-0.7070333,0,0)"
     d="m -83.697034,-285.42322 a 22.927557,22.927557 0 0 1 -10.682541,25.78993 22.927557,22.927557 0 0 1 -27.676005,-3.64361 22.927557,22.927557 0 0 1 -3.64362,-27.67601 22.927557,22.927557 0 0 1 25.789936,-10.68254"
     sodipodi:open="true"
     sodipodi:end="4.9741884"
     sodipodi:start="6.0213859"
     sodipodi:ry="22.927557"
     sodipodi:rx="22.927557"
     sodipodi:cy="-279.48914"
     sodipodi:cx="-105.84335"
     sodipodi:type="arc"
     id="path4512"
     style="opacity:1;fill:none;stroke:url(#70Gray-6);stroke-width:1;stroke-linecap:round;stroke-linejoin:round;stroke-miterlimit:4;stroke-dasharray:none;stroke-opacity:1" />
  <circle
     r="2.5"
     cy="99.999634"
     cx="272.5"
     id="circle4514"
     style="opacity:1;fill:url(#White-6);stroke:none;stroke-width:1;stroke-linecap:round;stroke-linejoin:round;stroke-miterlimit:4;stroke-dasharray:none;stroke-opacity:1" />
  <text
     sodipodi:linespacing="125%"
     id="text4516"
     y="126.24585"
     x="253.24622"
     style="font-style:normal;font-weight:normal;font-size:40px;line-height:125%;font-family:sans-serif;letter-spacing:0px;word-spacing:0px;fill:url(#60Gray-5);fill-opacity:1;stroke:none;stroke-width:1px;stroke-linecap:butt;stroke-linejoin:miter;stroke-opacity:1"
     xml:space="preserve"><tspan
       style="font-style:normal;font-variant:normal;font-weight:normal;font-stretch:normal;font-size:12.5px;font-family:Lato;-inkscape-font-specification:Lato;fill:url(#60Gray-5)"
       y="126.24585"
       x="253.24622"
       id="tspan4518"
       sodipodi:role="line">FILTER</tspan></text>
  <g
     id="g4520"
     style="fill:none;stroke:url(#Red-3);stroke-width:1.38611126"
     transform="matrix(0.72144278,0,0,0.72144278,174.05311,99.05272)">
    <circle
       cy="32.5"
       cx="32.5"
       id="circle4522"
       style="opacity:1;fill:none;stroke:url(#Green-7);stroke-width:2.77222252;stroke-linecap:round;stroke-linejoin:round;stroke-miterlimit:4;stroke-dasharray:none;stroke-opacity:1"
       r="15.94028" />
    <path
       sodipodi:nodetypes="cc"
       inkscape:connector-curvature="0"
       id="path4524"
       d="m 32.5,17 0,15.5"
       style="fill:none;fill-rule:evenodd;stroke:url(#Green-7);stroke-width:2.77222252;stroke-linecap:round;stroke-linejoin:miter;stroke-miterlimit:4;stroke-dasharray:none;stroke-opacity:1" />
    <path
       inkscape:connector-curvature="0"
       id="path4526"
       style="fill:none;fill-rule:evenodd;stroke:url(#70Gray-6);stroke-width:1.38611126;stroke-linecap:round;stroke-linejoin:miter;stroke-miterlimit:4;stroke-dasharray:none;stroke-opacity:1"
       d="M 9.4578438,55.528927 18.279002,46.707769 M 32.5,-0.07361522 32.5,12.401387 m 23.02367,43.135197 -8.821159,-8.821159 m 9.192863,-0.703867 -6.002037,-3.465277 m 8.703054,-3.051863 -6.694402,-1.793759 m 7.616624,-5.200389 -6.930554,0 m 6.011134,-6.994517 -6.694402,1.793759 m 3.995996,-8.31198 -6.002037,3.465277 m 1.708537,-9.062997 -4.900643,4.900643 M 46.011288,9.0940694 42.54601,15.096107 m -3.051862,-8.703055 -1.79376,6.694403 m -12.194906,-6.6972052 1.79376,6.6944032 m -13.909701,0.297503 4.900643,4.900643 m -11.8974027,7.212496 6.6944027,1.79376 m -6.6972048,12.194906 6.6944028,-1.79376 m -3.9959968,8.311981 6.0020378,-3.465278 m -9.6198639,-10.047461 6.9305559,0 M 9.0937991,18.978155 15.095837,22.443433 m 3.891424,-13.3547767 3.465278,6.0020377" />
  </g>
</svg>
